<?xml version="1.0" standalone="no"?><svg xmlns="http://www.w3.org/2000/svg" viewBox="0 0 1440 320"><path fill="#63AAFF" fill-opacity="1" d="M0,192L16,165.3C32,139,64,85,96,74.7C128,64,160,96,192,122.7C224,149,256,171,288,202.7C320,235,352,277,384,266.7C416,256,448,192,480,165.3C512,139,544,149,576,144C608,139,640,117,672,90.7C704,64,736,32,768,32C800,32,832,64,864,80C896,96,928,96,960,101.3C992,107,1024,117,1056,149.3C1088,181,1120,235,1152,266.7C1184,299,1216,309,1248,266.7C1280,224,1312,128,1344,74.7C1376,21,1408,11,1424,5.3L1440,0L1440,0L1424,0C1408,0,1376,0,1344,0C1312,0,1280,0,1248,0C1216,0,1184,0,1152,0C1120,0,1088,0,1056,0C1024,0,992,0,960,0C928,0,896,0,864,0C832,0,800,0,768,0C736,0,704,0,672,0C640,0,608,0,576,0C544,0,512,0,480,0C448,0,416,0,384,0C352,0,320,0,288,0C256,0,224,0,192,0C160,0,128,0,96,0C64,0,32,0,16,0L0,0Z"></path></svg>